<svg width="22" height="12" viewBox="0 0 22 12" fill="none" xmlns="http://www.w3.org/2000/svg">
<path d="M11 0C17.812 0 22 6 22 6C22 6 17.812 12 11 12C4.188 12 0 6 0 6C0 6 4.188 0 11 0ZM11 10C14.943 10 17.926 7.516 19.379 6C18.339 4.915 16.517 3.343 14.125 2.531C14.6883 3.23091 14.9969 4.10157 15 5C15 6.06087 14.5786 7.07828 13.8284 7.82843C13.0783 8.57857 12.0609 9 11 9C9.93913 9 8.92172 8.57857 8.17157 7.82843C7.42143 7.07828 7 6.06087 7 5C7.00314 4.10157 7.3117 3.23091 7.875 2.531C5.482 3.343 3.659 4.916 2.621 6C4.076 7.518 7.058 10 11 10Z" fill="#A6A6A6"/>
</svg>
