<svg width="18" height="18" viewBox="0 0 18 18" fill="none" xmlns="http://www.w3.org/2000/svg">
<path fill-rule="evenodd" clip-rule="evenodd" d="M9 1.49999C7.75074 1.49904 6.52107 1.81046 5.42287 2.40593C4.32466 3.00141 3.39278 3.86203 2.712 4.90949C2.60007 5.06819 2.43094 5.17729 2.2402 5.21382C2.04947 5.25036 1.852 5.21148 1.68934 5.10538C1.52668 4.99927 1.41153 4.83421 1.3681 4.64493C1.32467 4.45564 1.35636 4.25689 1.4565 4.0905C2.51474 2.46425 4.07018 1.22353 5.89098 0.553276C7.71178 -0.116974 9.70043 -0.180861 11.5605 0.371137C13.4206 0.923136 15.0524 2.06146 16.2129 3.61643C17.3733 5.1714 18.0002 7.05975 18 9C18 9.19911 17.9209 9.39006 17.7801 9.53086C17.6393 9.67165 17.4484 9.75074 17.2493 9.75074C17.0501 9.75074 16.8592 9.67165 16.7184 9.53086C16.5776 9.39006 16.4985 9.19911 16.4985 9C16.4985 7.01087 15.7083 5.10322 14.3018 3.69669C12.8953 2.29017 10.9876 1.49999 8.9985 1.49999H9ZM0.75 8.25C0.948912 8.25 1.13968 8.32901 1.28033 8.46967C1.42098 8.61032 1.5 8.80108 1.5 9C1.49944 10.6173 2.0217 12.1915 2.98888 13.4877C3.95606 14.784 5.31634 15.7328 6.86686 16.1928C8.41738 16.6528 10.075 16.5993 11.5927 16.0402C13.1103 15.4811 14.4065 14.4464 15.288 13.0905C15.34 13.0041 15.4088 12.9292 15.4904 12.87C15.572 12.8108 15.6647 12.7687 15.7629 12.7462C15.8611 12.7237 15.9629 12.7212 16.0621 12.7388C16.1613 12.7565 16.256 12.794 16.3404 12.8491C16.4248 12.9041 16.4972 12.9756 16.5534 13.0593C16.6095 13.143 16.6483 13.2371 16.6672 13.3361C16.6862 13.4351 16.685 13.5369 16.6637 13.6354C16.6425 13.7339 16.6016 13.8271 16.5435 13.9095C15.4853 15.5357 13.9298 16.7765 12.109 17.4467C10.2882 18.117 8.29957 18.1809 6.4395 17.6289C4.57944 17.0769 2.94756 15.9385 1.78712 14.3836C0.626689 12.8286 -0.00016647 10.9402 3.31608e-08 9C-1.64075e-07 8.90138 0.0194489 8.80373 0.0572337 8.71264C0.0950185 8.62154 0.150397 8.5388 0.2202 8.46913C0.290003 8.39947 0.372859 8.34426 0.464027 8.30665C0.555194 8.26905 0.652882 8.2498 0.7515 8.25H0.75Z" fill="#878787"/>
</svg>
