<svg width="19" height="13" viewBox="0 0 19 13" fill="none" xmlns="http://www.w3.org/2000/svg">
<path fill-rule="evenodd" clip-rule="evenodd" d="M17.781 0.469059C17.8508 0.538727 17.9063 0.621491 17.9441 0.712608C17.9819 0.803726 18.0013 0.901408 18.0013 1.00006C18.0013 1.09871 17.9819 1.19639 17.9441 1.28751C17.9063 1.37863 17.8508 1.46139 17.781 1.53106L7.281 12.0311C7.21133 12.1009 7.12857 12.1563 7.03745 12.1941C6.94633 12.2319 6.84865 12.2514 6.75 12.2514C6.65135 12.2514 6.55367 12.2319 6.46255 12.1941C6.37143 12.1563 6.28867 12.1009 6.219 12.0311L0.969001 6.78106C0.828171 6.64023 0.749054 6.44922 0.749054 6.25006C0.749054 6.0509 0.828171 5.85989 0.969001 5.71906C1.10983 5.57823 1.30084 5.49911 1.5 5.49911C1.69916 5.49911 1.89017 5.57823 2.031 5.71906L6.75 10.4396L16.719 0.469059C16.7887 0.399214 16.8714 0.3438 16.9626 0.30599C17.0537 0.268181 17.1514 0.248718 17.25 0.248718C17.3487 0.248718 17.4463 0.268181 17.5375 0.30599C17.6286 0.3438 17.7113 0.399214 17.781 0.469059Z" fill="#00B17C"/>
</svg>
